<svg id="Layer_1" data-name="Layer 1" xmlns="http://www.w3.org/2000/svg" viewBox="0 0 200 200"><defs><style>.cls-1{fill:#afafaf;}</style></defs><title>church_admin</title><circle class="cls-1" cx="80.59" cy="61.45" r="33.24"/><path class="cls-1" d="M95.94,150.51A17.56,17.56,0,0,1,85.3,134.38v-5.54A17.56,17.56,0,0,1,96,112.72a17.64,17.64,0,0,1-.78-10.65H54.74a40.62,40.62,0,0,0-40.62,40.62v18.47H95.18a17.44,17.44,0,0,1,.77-10.65Z"/><path class="cls-1" d="M180.35,123.31h-6.63a33,33,0,0,0-3.52-8.54l4.69-4.69a5.54,5.54,0,0,0,0-7.83h0L171,98.33a5.54,5.54,0,0,0-7.83,0h0l-4.7,4.68a33,33,0,0,0-8.54-3.53V92.86a5.54,5.54,0,0,0-5.54-5.54h-5.54a5.54,5.54,0,0,0-5.54,5.54v6.63a33,33,0,0,0-8.54,3.53l-4.69-4.69a5.54,5.54,0,0,0-7.83,0h0l-3.91,3.91a5.54,5.54,0,0,0,0,7.83h0l4.68,4.7a33,33,0,0,0-3.52,8.54h-6.63a5.54,5.54,0,0,0-5.54,5.54v5.54a5.54,5.54,0,0,0,5.54,5.54h6.63a32.94,32.94,0,0,0,3.52,8.54l-4.69,4.69a5.54,5.54,0,0,0,0,7.83h0l3.91,3.91a5.54,5.54,0,0,0,7.83,0h0l4.7-4.68a33,33,0,0,0,8.54,3.52v6.63a5.54,5.54,0,0,0,5.54,5.54h5.54a5.54,5.54,0,0,0,5.54-5.54v-6.63a33,33,0,0,0,8.54-3.52l4.69,4.69a5.54,5.54,0,0,0,7.83,0h0l3.91-3.91a5.54,5.54,0,0,0,0-7.83h0l-4.68-4.7a32.94,32.94,0,0,0,3.52-8.54h6.63a5.54,5.54,0,0,0,5.54-5.54v-5.54A5.54,5.54,0,0,0,180.35,123.31Zm-38.76-5.54a13.84,13.84,0,1,1-13.84,13.84A13.84,13.84,0,0,1,141.6,117.77Z"/></svg>