<svg id="Layer_1" data-name="Layer 1" xmlns="http://www.w3.org/2000/svg" viewBox="0 0 120 120"><defs><style>.cls-1{fill:none;}.cls-2{fill:#f2f2f2;}</style></defs><title>admin icons</title><polygon class="cls-1" points="86.05 76.63 75.77 50.76 65.5 76.63 86.05 76.63"/><path class="cls-2" d="M46.12,63.65l1.17-.9,1,1c2.61,2.16,5.32,4.42,8.47,6.58a1.73,1.73,0,0,0,2.61-.81h0a1.73,1.73,0,0,0-.63-2.16,52.91,52.91,0,0,1-7.57-6.4L50,59.77l1.17-1.17a35,35,0,0,0,9.1-15.77A2,2,0,0,0,60,41.39a1.6,1.6,0,0,0-1.62-.63,1.63,1.63,0,0,0-1.26,1.35,24.79,24.79,0,0,1-8.83,14.6l-1,.81-1-.81a37.76,37.76,0,0,1-8.2-10.82,1.49,1.49,0,0,0-1.35-.81h-.18a1.72,1.72,0,0,0-1.35.72,1.55,1.55,0,0,0,0,1.53A65.33,65.33,0,0,0,44.14,58.6l1.35,1.26L44,61a116.07,116.07,0,0,1-13.7,9.55,1.4,1.4,0,0,0-.72,1,1.55,1.55,0,0,0,.18,1.08A1.6,1.6,0,0,0,32,73.2C35.66,70.86,42.6,66.62,46.12,63.65Z"/><path class="cls-2" d="M49.54,30.39a1.81,1.81,0,0,0-1.8-1.8h-.9a1.81,1.81,0,0,0-1.8,1.8v4.24H24.4v2.88h45V34.63H49.54Z"/><path class="cls-2" d="M95.33,89c0-.09,0-.09-.09-.18L78.66,48.33a3.36,3.36,0,0,0-3-2,3.13,3.13,0,0,0-2.88,2L56.21,88.89a2.79,2.79,0,0,0-.18.72,1.81,1.81,0,0,0,1.8,1.8,1.85,1.85,0,0,0,1.71-1.17l4.06-10.18H88l4.06,10.09a1.76,1.76,0,0,0,1.71,1.17,1.81,1.81,0,0,0,1.8-1.8ZM64.78,77.08l.09-.27L75.68,49.59l11,27.49Z"/></svg>