<svg id="Layer_1" data-name="Layer 1" xmlns="http://www.w3.org/2000/svg" viewBox="0 0 120 120"><defs><style>.cls-1{fill:none;}.cls-2{fill:#f2f2f2;}</style></defs><title>admin icons</title><path class="cls-1" d="M34.34,84.5a1.34,1.34,0,0,0,1.32,1.32H55.19v-29H34.34Z"/><path class="cls-1" d="M49.83,30.54a5.26,5.26,0,1,0,0,10.53h5.26V35.8A5.29,5.29,0,0,0,49.83,30.54Z"/><path class="cls-1" d="M80.7,53.42a1.73,1.73,0,0,1,1,0h2.53a1.34,1.34,0,0,0,1.32-1.32V46a1.34,1.34,0,0,0-1.32-1.32H58.63v8.71Z"/><path class="cls-1" d="M58.73,41.17H65a6.33,6.33,0,1,0,0-12.66,6.52,6.52,0,0,0-6.38,6.18,4.54,4.54,0,0,1,.1,1.11Z"/><path class="cls-1" d="M28.16,46V52.1a1.34,1.34,0,0,0,1.32,1.32h2.63a1.73,1.73,0,0,1,1,0H55.19V44.71H29.48A1.41,1.41,0,0,0,28.16,46Z"/><path class="cls-1" d="M80.81,69.31A11.44,11.44,0,1,0,92.25,80.75,11.36,11.36,0,0,0,80.81,69.31Zm1.11,17.31v.81a1.06,1.06,0,0,1-1.11,1.11,1.12,1.12,0,0,1-1.11-1.11v-.81a7.66,7.66,0,0,1-2.63-1.11,1.37,1.37,0,0,1-.71-1,1.09,1.09,0,0,1,1.11-1.21,2.58,2.58,0,0,1,.71.2,4.24,4.24,0,0,0,2.73.91c1.21,0,1.92-.71,1.92-1.32,0-.91-.91-1.21-2.13-1.62-1.72-.4-4-1-4-3.64a3.47,3.47,0,0,1,3-3.44v-.71a1.12,1.12,0,0,1,1.11-1.11,1.29,1.29,0,0,1,1.11,1.11v.61a5.11,5.11,0,0,1,2.33.91,1.72,1.72,0,0,1,.61,1,1.09,1.09,0,0,1-1.11,1.21c-.2,0-.3-.1-.61-.2a4,4,0,0,0-2.53-.71c-1.21,0-1.72.61-1.72,1.21,0,.81.91,1.11,2.13,1.32,1.72.4,4,1,4,3.75A3.38,3.38,0,0,1,81.92,86.63Z"/><path class="cls-2" d="M58.63,85.82v-29H79.39v5.06c.4,0,.91-.1,1.32-.1.71,0,1.52.1,2.23.1V56.76h1.32a4.86,4.86,0,0,0,4.86-4.86V45.83A4.86,4.86,0,0,0,84.25,41H72.6l.3-.4a9.91,9.91,0,1,0-16.3-11.24l-.2.3-.2-.2A8.89,8.89,0,0,0,42.43,40.56l.2.4H29.48a4.86,4.86,0,0,0-4.86,4.86V51.9a4.86,4.86,0,0,0,4.86,4.86h1.32V84.4a4.86,4.86,0,0,0,4.86,4.86H64.1a21.56,21.56,0,0,1-1.42-3.54h-4ZM65,28.51a6.33,6.33,0,1,1,0,12.66H58.73V35.8a4.54,4.54,0,0,0-.1-1.11A6.38,6.38,0,0,1,65,28.51Zm-6.38,16.3H84.25a1.34,1.34,0,0,1,1.32,1.32V52.2a1.34,1.34,0,0,1-1.32,1.32H81.72a1.72,1.72,0,0,0-1,0H58.63Zm-3.54,41H35.55a1.34,1.34,0,0,1-1.32-1.32V56.86H55v29Zm0-32.4H33a1.73,1.73,0,0,0-1,0H29.48a1.34,1.34,0,0,1-1.32-1.32V46a1.34,1.34,0,0,1,1.32-1.32H55.09Zm0-12.25H49.83a5.26,5.26,0,1,1,5.26-5.26Z"/><path class="cls-2" d="M80.81,66.18A14.58,14.58,0,1,0,95.38,80.75,14.65,14.65,0,0,0,80.81,66.18Zm0,26A11.44,11.44,0,1,1,92.25,80.75,11.49,11.49,0,0,1,80.81,92.19Z"/><path class="cls-2" d="M81.11,79.13c-1.21-.2-2.13-.61-2.13-1.32s.4-1.21,1.72-1.21a4,4,0,0,1,2.53.71,1.09,1.09,0,0,0,.61.2A1.15,1.15,0,0,0,85,76.3a1.34,1.34,0,0,0-.61-1A5.59,5.59,0,0,0,82,74.38v-.61a1.2,1.2,0,0,0-1.11-1.11,1.12,1.12,0,0,0-1.11,1.11v.51a3.54,3.54,0,0,0-3,3.44c0,2.63,2.33,3.14,4,3.64,1.21.3,2.13.71,2.13,1.62,0,.71-.71,1.32-1.92,1.32a4.24,4.24,0,0,1-2.73-.91,1.46,1.46,0,0,0-.71-.2,1.16,1.16,0,0,0-.4,2.23,5.63,5.63,0,0,0,2.63,1.11v.91a1.06,1.06,0,0,0,1.11,1.11A1.12,1.12,0,0,0,82,87.44v-.71A3.55,3.55,0,0,0,85.26,83C85.16,80.15,82.83,79.64,81.11,79.13Z"/></svg>