<svg id="Layer_1" data-name="Layer 1" xmlns="http://www.w3.org/2000/svg" viewBox="0 0 120 120"><defs><style>.cls-1{fill:#f2f2f2;}</style></defs><title>admin icons</title><path class="cls-1" d="M53.15,60a13,13,0,1,1,13-13A12.95,12.95,0,0,1,53.15,60Zm0-22.71a9.74,9.74,0,1,0,9.74,9.74A9.81,9.81,0,0,0,53.15,37.34Z"/><path class="cls-1" d="M79.72,90.75H26.58a1.65,1.65,0,0,1-1.65-1.65A25.13,25.13,0,0,1,50,64h6.25a25.13,25.13,0,0,1,25.1,25.1A1.65,1.65,0,0,1,79.72,90.75ZM28.24,87.53H78.06A21.87,21.87,0,0,0,56.28,67.31H50A21.87,21.87,0,0,0,28.24,87.53Z"/><path class="cls-1" d="M71.17,54.44a1.58,1.58,0,0,1-1.47-1,1.62,1.62,0,0,1,.92-2.11,9.7,9.7,0,0,0,6.07-9,9.81,9.81,0,0,0-9.74-9.74,9.49,9.49,0,0,0-2.76.37,1.63,1.63,0,0,1-.92-3.13,12.13,12.13,0,0,1,3.59-.55,13,13,0,0,1,4.87,25A.68.68,0,0,1,71.17,54.44Z"/><path class="cls-1" d="M93.42,86H86.89a1.65,1.65,0,1,1,0-3.31h4.87A21.87,21.87,0,0,0,70,62.44h-.92a1.65,1.65,0,1,1,0-3.31H70a25.13,25.13,0,0,1,25.1,25.1A1.67,1.67,0,0,1,93.42,86Z"/></svg>