<svg id="Layer_1" data-name="Layer 1" xmlns="http://www.w3.org/2000/svg" viewBox="0 0 120 120"><defs><style>.cls-1{fill:#f2f2f2;}</style></defs><title>admin icons</title><path class="cls-1" d="M60.05,57.39A14.15,14.15,0,1,1,74.21,43.24,14.12,14.12,0,0,1,60.05,57.39Zm0-24.71A10.56,10.56,0,1,0,70.61,43.24,10.64,10.64,0,0,0,60.05,32.68Z"/><path class="cls-1" d="M88.9,90.92H31.1a1.83,1.83,0,0,1-1.85-1.85A27.34,27.34,0,0,1,56.57,61.74h6.86A27.34,27.34,0,0,1,90.75,89.07,1.91,1.91,0,0,1,88.9,90.92ZM32.84,87.32H87.05a23.77,23.77,0,0,0-23.73-22H56.57A23.93,23.93,0,0,0,32.84,87.32Z"/></svg>