<svg id="Layer_1" data-name="Layer 1" xmlns="http://www.w3.org/2000/svg" viewBox="0 0 120 120"><defs><style>.cls-1{fill:#f2f2f2;}</style></defs><title>admin icons</title><g id="Layer_2" data-name="Layer 2"><g id="Layer_1-2" data-name="Layer 1-2"><path class="cls-1" d="M85.63,77.2l6.2,3.9a1.49,1.49,0,0,0,2.1-.5l.1-.1a1.49,1.49,0,0,0-.5-2.1L78.13,69V42.4l1.6,1.1a1.6,1.6,0,0,0,2.2-.5h0a1.46,1.46,0,0,0-.5-2l-20-12.2v-5h2.1a1.58,1.58,0,0,0,1.6-1.6h0a1.58,1.58,0,0,0-1.6-1.6h-1.9V18.5A1.58,1.58,0,0,0,60,16.9h0a1.58,1.58,0,0,0-1.6,1.6v2.1h-2.1a1.58,1.58,0,0,0-1.6,1.6h0a1.58,1.58,0,0,0,1.6,1.6h2.1v5L38.43,41a1.46,1.46,0,0,0-.5,2v.1a1.52,1.52,0,0,0,2.1.6l2.4-1.4V68.5l-16,9.7a1.46,1.46,0,0,0-.5,2h0a1.61,1.61,0,0,0,2.2.6l6.1-3.9v23h-6.6a1.58,1.58,0,0,0-1.6,1.6h0a1.58,1.58,0,0,0,1.6,1.6h64.7a1.58,1.58,0,0,0,1.6-1.6h0a1.58,1.58,0,0,0-1.6-1.6h-6.6V77.2Zm-39.7-37,14.2-8.7,14.7,9V66.7l-14.7-9-14.2,8.7Zm10,59.9V82.9h8.2v17.2Zm11.5,0V81.5a1.9,1.9,0,0,0-1.9-1.9h-11a1.9,1.9,0,0,0-1.9,1.9v18.6h-15v-25l22.5-13.7,22.5,13.7v25Z"/><path class="cls-1" d="M65.43,43.9a5.2,5.2,0,1,0-5.2,5.2h0A5.16,5.16,0,0,0,65.43,43.9Zm-7.3,0a2,2,0,0,1,2-2,2,2,0,1,1,0,4h0a1.94,1.94,0,0,1-2-2Z"/></g></g></svg>