<svg id="Layer_1" data-name="Layer 1" xmlns="http://www.w3.org/2000/svg" viewBox="0 0 120 120"><defs><style>.cls-1{fill:#f2f2f2;}</style></defs><title>admin icons</title><path class="cls-1" d="M71.45,47.76H44.78a1.42,1.42,0,0,1,0-2.84H71.45a1.42,1.42,0,1,1,0,2.84Z"/><path class="cls-1" d="M71.45,58.95H44.78a1.42,1.42,0,0,1,0-2.84H71.45a1.42,1.42,0,1,1,0,2.84Z"/><path class="cls-1" d="M62.62,70.14H44.69a1.42,1.42,0,0,1,0-2.84H62.62a1.42,1.42,0,0,1,0,2.84Z"/><path class="cls-1" d="M61.24,87.33H34.07a1.42,1.42,0,0,1-1.42-1.42V29.79a1.42,1.42,0,0,1,1.42-1.42H80.78a1.42,1.42,0,0,1,1.42,1.42V60a1.42,1.42,0,0,1-2.84,0V31.21H35.49V84.49H61.24a1.42,1.42,0,1,1,0,2.84Z"/><path class="cls-1" d="M78.59,91.63A12.93,12.93,0,1,1,91.53,78.69,12.95,12.95,0,0,1,78.59,91.63Zm0-23a10.1,10.1,0,1,0,10.1,10.1A10.11,10.11,0,0,0,78.59,68.6Z"/><path class="cls-1" d="M74.7,82a1,1,0,0,1,1-1.05,1.5,1.5,0,0,1,.57.16,4,4,0,0,0,2.43.81c1.14,0,1.7-.57,1.7-1.22,0-.81-.81-1.05-1.95-1.38-1.54-.41-3.57-.89-3.57-3.24,0-1.78,1.38-3.24,3.81-3.24a5.86,5.86,0,0,1,3,.89,1.1,1.1,0,0,1,.49.89,1,1,0,0,1-1,1.05,1.15,1.15,0,0,1-.49-.16,3.81,3.81,0,0,0-2.19-.65c-1.05,0-1.54.49-1.54,1.05,0,.73.81,1,1.95,1.22,1.54.41,3.57.89,3.57,3.32,0,1.95-1.22,3.41-3.81,3.41a5.67,5.67,0,0,1-3.41-1.05A.84.84,0,0,1,74.7,82Z"/><path class="cls-1" d="M78.59,74.15a1,1,0,0,1-1-1v-.81a1,1,0,0,1,1-1,1,1,0,0,1,1,1v.81A1,1,0,0,1,78.59,74.15Z"/><path class="cls-1" d="M78.59,85.59a1,1,0,0,1-1-1V83.48a1,1,0,0,1,1-1,1,1,0,0,1,1,1v1.05A1,1,0,0,1,78.59,85.59Z"/></svg>