<svg id="Layer_1" data-name="Layer 1" xmlns="http://www.w3.org/2000/svg" viewBox="0 0 120 120"><defs><style>.cls-1{fill:#f2f2f2;}</style></defs><title>admin icons</title><path class="cls-1" d="M92.21,45.83a2.87,2.87,0,0,0,.74-.19l7.88-4.54a1.35,1.35,0,1,0-1.39-2.32l-7.88,4.45a1.24,1.24,0,0,0-.46,1.85A1.12,1.12,0,0,0,92.21,45.83Z"/><path class="cls-1" d="M100.64,67.8l-7.79-4.45a1.31,1.31,0,0,0-1.85.46c-.28.65-.19,1.58.46,1.85l7.88,4.45a1,1,0,0,0,.74.19,1.31,1.31,0,0,0,.56-2.5Z"/><path class="cls-1" d="M100.64,53.06h0l-9,.09a1.39,1.39,0,0,0,0,2.78h0l9-.09A1.43,1.43,0,0,0,102,54.45,1.36,1.36,0,0,0,100.64,53.06Z"/><path class="cls-1" d="M82.66,50H79.79V30.17a1.57,1.57,0,0,0-.83-1.3,1.43,1.43,0,0,0-1.48.19A49,49,0,0,1,45.22,41.2h-14A13.25,13.25,0,0,0,18,54.45v1A13.25,13.25,0,0,0,31.22,68.73a.84.84,0,0,0,.46-.09H36.6V84.76a7.12,7.12,0,0,0,1.85,4.63A6.46,6.46,0,0,0,43,91.25h.09a6.53,6.53,0,0,0,6.49-6.58V73.82a1.39,1.39,0,1,0-2.78,0V84.76a3.74,3.74,0,0,1-3.71,3.8,3.81,3.81,0,0,1-2.6-1,3.43,3.43,0,0,1-1.11-2.69V68.73h6.21a50.18,50.18,0,0,1,32,11.59,1.65,1.65,0,0,0,.93.37A1,1,0,0,0,79,80.5a1.45,1.45,0,0,0,.83-1.3V59.27h3a4.75,4.75,0,0,0,4.73-4.73,4.55,4.55,0,0,0-1.39-3.34A6,6,0,0,0,82.66,50ZM20.75,55.57v-1a10.49,10.49,0,0,1,9-10.38v21.6A10.31,10.31,0,0,1,20.75,55.57ZM45.59,65.95h-13V44.17H45.22A51.61,51.61,0,0,0,77,33.23V51.39h0V58h0V76.33A53.21,53.21,0,0,0,45.59,65.95Zm37.07-9.36H79.79v-3.8h3a1.68,1.68,0,0,1,1.3.56,2.33,2.33,0,0,1,.56,1.3A2,2,0,0,1,82.66,56.59Z"/></svg>