<svg id="Layer_1" data-name="Layer 1" xmlns="http://www.w3.org/2000/svg" viewBox="0 0 125 125"><defs><style>.cls-1{fill:#eee;}</style></defs><title>logout</title><path class="cls-1" d="M114.52,62.3a1.65,1.65,0,0,0-.13-.78.48.48,0,0,0-.13-.39c0-.13-.13-.26-.13-.39s-.13-.26-.26-.52l-.13-.26a2.84,2.84,0,0,0-.52-.65L96,42.1a4.48,4.48,0,0,0-6.26,0,4.55,4.55,0,0,0-1.3,3.13,4.81,4.81,0,0,0,1.3,3.13l9.77,9.77H48.32a4.43,4.43,0,0,0,0,8.86H99.53l-9.9,9.9A4.55,4.55,0,0,0,88.33,80a4.81,4.81,0,0,0,1.3,3.13,4.55,4.55,0,0,0,3.13,1.3,4.24,4.24,0,0,0,3.13-1.3l17.46-17.46.52-.52c.13-.13.13-.26.26-.39s.13-.26.13-.39.13-.26.13-.52,0-.13.13-.26.13-.52.13-.91Zm-1.43-1Z"/><path class="cls-1" d="M75.29,83.42a4.39,4.39,0,0,0-4.43,4.43v19.29A1.78,1.78,0,0,1,69,109H22.77a1.78,1.78,0,0,1-1.82-1.82V17.73a1.78,1.78,0,0,1,1.82-1.82H69a1.78,1.78,0,0,1,1.82,1.82V36.24a4.43,4.43,0,1,0,8.86,0V17.73A10.51,10.51,0,0,0,69.17,7.18H22.9A10.51,10.51,0,0,0,12.35,17.73v89.53A10.51,10.51,0,0,0,22.9,117.82H69.17a10.51,10.51,0,0,0,10.56-10.56V87.85A4.57,4.57,0,0,0,75.29,83.42Z"/></svg>