<svg id="Layer_1" data-name="Layer 1" xmlns="http://www.w3.org/2000/svg" viewBox="0 0 200 200"><defs><style>.cls-1{fill:#b1b1b1;}</style></defs><title>refresh</title><path class="cls-1" d="M179.62,83.49a6.91,6.91,0,0,0-13.53,2.79,67.45,67.45,0,0,1-113.25,61.9L61,149.37a7,7,0,0,0,8-5.77,7.11,7.11,0,0,0-1.39-5.17A7.44,7.44,0,0,0,63,135.64L37.5,131.86a7.11,7.11,0,0,0-5.17,1.39,8.47,8.47,0,0,0-2.79,4.58L25.76,163.5a7,7,0,0,0,6,8,7.11,7.11,0,0,0,8-6l1.39-9.55A80.07,80.07,0,0,0,100,181.42a81.36,81.36,0,0,0,79.62-97.93Z"/><path class="cls-1" d="M28.55,121.91a6.93,6.93,0,0,0,5.37-8.16,67.45,67.45,0,0,1,113.25-61.9l-8.36-1.19a7,7,0,0,0-8,5.77,7.11,7.11,0,0,0,1.39,5.17,7.44,7.44,0,0,0,4.58,2.79l25.68,3.78a6.88,6.88,0,0,0,5.17-1.39,7.44,7.44,0,0,0,2.79-4.58l3.78-25.68a7.11,7.11,0,0,0-1.39-5.17,7.44,7.44,0,0,0-4.58-2.79,7,7,0,0,0-8,6l-1.39,9.35C136.42,19.8,101,12,69.95,24.38a81,81,0,0,0-49.56,92.15,7,7,0,0,0,6.77,5.57A3.39,3.39,0,0,0,28.55,121.91Z"/></svg>