<svg id="Layer_1" data-name="Layer 1" xmlns="http://www.w3.org/2000/svg" viewBox="0 0 160 160"><defs><style>.cls-1{fill:#a51a2f;}</style></defs><title>loading</title><path class="cls-1" d="M25.89,119.8s-7.34,8.59-6.43,11.95a6.87,6.87,0,0,0,3.43,4.46l4.86.63,7.81,2s13.94,2,13.48-1.48,13.77-19.75,15.29-22.57C66,111.67,87.51,89.55,87.51,89.55L101.6,76l12.75-10.11-1-.48,21.25-17.28c7.3-5.35,25.06-16.45,24.61-17-.7-.92-.57-.39-2.22-.22a39.24,39.24,0,0,0-6.86,1.64c-.87.47,1-.33,1-.33l-1.44-2.22-6.37,1.69a8.17,8.17,0,0,0,1.37-3c.27-1.42-1.65-.84-1.55-1.68.23-1.73-4.61-.51-4.61-.51s2.38-2.36.35-2.79c-1.21-.26-.07-1.85-7.32,2.34-1.22.71-6.64,4.18-7.24,4.57-1.47,1-12.1,10.29-13.86,9.43-.53-.26-6.3,5.15-6.3,5.15l-15,12.24L65.59,77.83S57,85.66,51.82,90.72c-1.68,1.63-15.38,16.46-15.38,16.46Z"/><path class="cls-1" d="M8.75,26.5s5.51,9,7.16,13c2.53,6.16,4.78,13.06,6.25,16.78,8,20.07,1.59,35.56,7.66,37.2,3,.82,11.1-3.61,11.23-5.32s7.81-7.89,9.66-9.28,2.61-3.46,1.51-6.3C46.89,58.82,41.64,41.78,37.8,37l-.54,1.29s-7.36-12.12-11.81-17c-2-2.2-3.76,1.63-3.76,1.63l-3.94-1.38-2,1.58-4-.55Z"/><path class="cls-1" d="M51.46,40.85s2.29,12.52,2.66,13.21c1.69,3.09,4.09,7.35,7.87,10.25,2,1.55,9-5.55,10.06-6.71s9.14-3.36,10.59-4.76.9-4.13-.39-7.1-5.22-9.22-6.36-13-6.7-2.76-7-1.6-4.75,1.45-4.75,1.45l-3.9,3.68-8.9,3.63Z"/></svg>