<svg id="Layer_1" data-name="Layer 1" xmlns="http://www.w3.org/2000/svg" viewBox="0 0 200 200"><defs><style>.cls-1{fill:#afafaf;}</style></defs><title>wycliffe_admin</title><path class="cls-1" d="M32.41,149.23S23.34,159.85,24.46,164a8.5,8.5,0,0,0,4.25,5.52l6,.77,9.66,2.44s17.24,2.49,16.67-1.83S78.08,146.49,80,143c2.06-3.82,28.67-31.18,28.67-31.18L126.06,95l15.77-12.51-1.2-.59,26.29-21.37c9-6.62,31-20.35,30.44-21.09-.87-1.14-.71-.48-2.74-.28a48.53,48.53,0,0,0-8.49,2c-1.08.58,1.18-.41,1.18-.41l-1.78-2.74-7.88,2.09a10.11,10.11,0,0,0,1.69-3.67c.34-1.75-2-1-1.91-2.07.28-2.14-5.7-.63-5.7-.63s2.95-2.91.44-3.45c-1.5-.32-.08-2.29-9.06,2.89-1.5.87-8.22,5.18-9,5.65-1.81,1.18-15,12.73-17.14,11.66-.65-.32-7.79,6.37-7.79,6.37L110.68,72.07,81.52,97.31s-10.59,9.7-17,15.94c-2.08,2-19,20.36-19,20.36Z"/><path class="cls-1" d="M11.21,33.83S18,45,20.07,50c3.13,7.62,5.91,16.16,7.73,20.76,9.88,24.83,2,44,9.48,46,3.77,1,13.73-4.46,13.89-6.58s9.66-9.76,11.94-11.48,3.23-4.28,1.87-7.79c-6.6-17.08-13.09-38.16-17.84-44l-.66,1.6s-9.1-15-14.61-21.09c-2.45-2.72-4.65,2-4.65,2L22.36,27.7l-2.47,2-5-.68Z"/><path class="cls-1" d="M64,51.58s2.83,15.49,3.29,16.34c2.09,3.83,5.06,9.09,9.74,12.68,2.5,1.91,11.13-6.87,12.44-8.3,1.46-1.59,11.3-4.16,13.1-5.89s1.11-5.11-.49-8.79-6.45-11.41-7.86-16-8.29-3.41-8.68-2-5.88,1.79-5.88,1.79l-4.83,4.55-11,4.49Z"/></svg>